<mxfile host="Electron" agent="Mozilla/5.0 (Windows NT 10.0; Win64; x64) AppleWebKit/537.36 (KHTML, like Gecko) draw.io/28.1.2 Chrome/138.0.7204.243 Electron/37.4.0 Safari/537.36" version="28.1.2" pages="2">
  <diagram name="Page-1" id="Pmdnp38TrB7LRemaoe_c">
    <mxGraphModel dx="1186" dy="1334" grid="0" gridSize="10" guides="1" tooltips="1" connect="1" arrows="1" fold="1" page="0" pageScale="1" pageWidth="850" pageHeight="1100" math="0" shadow="0">
      <root>
        <mxCell id="0" />
        <mxCell id="1" parent="0" />
        <mxCell id="KByajIvAHXBx090bnsgi-1" value="" style="rounded=1;whiteSpace=wrap;html=1;" parent="1" vertex="1">
          <mxGeometry x="62" y="-517" width="536" height="483" as="geometry" />
        </mxCell>
        <mxCell id="KByajIvAHXBx090bnsgi-2" value="Customer" style="text;html=1;align=center;verticalAlign=middle;whiteSpace=wrap;rounded=0;fontStyle=1" parent="1" vertex="1">
          <mxGeometry x="300" y="-515" width="60" height="30" as="geometry" />
        </mxCell>
        <mxCell id="KByajIvAHXBx090bnsgi-11" style="edgeStyle=none;curved=1;rounded=0;orthogonalLoop=1;jettySize=auto;html=1;entryX=0;entryY=0.5;entryDx=0;entryDy=0;fontSize=12;startSize=8;endSize=8;" parent="1" source="KByajIvAHXBx090bnsgi-4" target="KByajIvAHXBx090bnsgi-8" edge="1">
          <mxGeometry relative="1" as="geometry">
            <Array as="points">
              <mxPoint x="-25" y="-460" />
            </Array>
          </mxGeometry>
        </mxCell>
        <mxCell id="KByajIvAHXBx090bnsgi-12" style="edgeStyle=none;curved=1;rounded=0;orthogonalLoop=1;jettySize=auto;html=1;entryX=0;entryY=0.5;entryDx=0;entryDy=0;fontSize=12;startSize=8;endSize=8;" parent="1" source="KByajIvAHXBx090bnsgi-4" target="KByajIvAHXBx090bnsgi-9" edge="1">
          <mxGeometry relative="1" as="geometry">
            <Array as="points">
              <mxPoint x="32" y="-445" />
            </Array>
          </mxGeometry>
        </mxCell>
        <mxCell id="KByajIvAHXBx090bnsgi-14" style="edgeStyle=none;curved=1;rounded=0;orthogonalLoop=1;jettySize=auto;html=1;entryX=0;entryY=0.5;entryDx=0;entryDy=0;fontSize=12;startSize=8;endSize=8;" parent="1" source="KByajIvAHXBx090bnsgi-4" target="KByajIvAHXBx090bnsgi-10" edge="1">
          <mxGeometry relative="1" as="geometry">
            <Array as="points">
              <mxPoint x="60" y="-398" />
            </Array>
          </mxGeometry>
        </mxCell>
        <mxCell id="KByajIvAHXBx090bnsgi-16" style="edgeStyle=none;curved=1;rounded=0;orthogonalLoop=1;jettySize=auto;html=1;entryX=0;entryY=0.5;entryDx=0;entryDy=0;fontSize=12;startSize=8;endSize=8;" parent="1" source="KByajIvAHXBx090bnsgi-4" target="KByajIvAHXBx090bnsgi-15" edge="1">
          <mxGeometry relative="1" as="geometry">
            <Array as="points">
              <mxPoint x="71" y="-343" />
            </Array>
          </mxGeometry>
        </mxCell>
        <mxCell id="KByajIvAHXBx090bnsgi-27" style="edgeStyle=none;curved=1;rounded=0;orthogonalLoop=1;jettySize=auto;html=1;entryX=0;entryY=0.5;entryDx=0;entryDy=0;fontSize=12;startSize=8;endSize=8;" parent="1" source="KByajIvAHXBx090bnsgi-4" target="KByajIvAHXBx090bnsgi-26" edge="1">
          <mxGeometry relative="1" as="geometry">
            <Array as="points">
              <mxPoint x="77" y="-296" />
            </Array>
          </mxGeometry>
        </mxCell>
        <mxCell id="KByajIvAHXBx090bnsgi-33" style="edgeStyle=none;curved=1;rounded=0;orthogonalLoop=1;jettySize=auto;html=1;entryX=0;entryY=0.5;entryDx=0;entryDy=0;fontSize=12;startSize=8;endSize=8;" parent="1" source="KByajIvAHXBx090bnsgi-4" target="KByajIvAHXBx090bnsgi-31" edge="1">
          <mxGeometry relative="1" as="geometry">
            <Array as="points">
              <mxPoint x="76" y="-253" />
            </Array>
          </mxGeometry>
        </mxCell>
        <mxCell id="KByajIvAHXBx090bnsgi-34" style="edgeStyle=none;curved=1;rounded=0;orthogonalLoop=1;jettySize=auto;html=1;entryX=0;entryY=0.5;entryDx=0;entryDy=0;fontSize=12;startSize=8;endSize=8;" parent="1" source="KByajIvAHXBx090bnsgi-4" target="KByajIvAHXBx090bnsgi-32" edge="1">
          <mxGeometry relative="1" as="geometry">
            <Array as="points">
              <mxPoint x="62" y="-200" />
            </Array>
          </mxGeometry>
        </mxCell>
        <mxCell id="KByajIvAHXBx090bnsgi-36" style="edgeStyle=none;curved=1;rounded=0;orthogonalLoop=1;jettySize=auto;html=1;entryX=0;entryY=0.5;entryDx=0;entryDy=0;fontSize=12;startSize=8;endSize=8;" parent="1" source="KByajIvAHXBx090bnsgi-4" target="KByajIvAHXBx090bnsgi-35" edge="1">
          <mxGeometry relative="1" as="geometry">
            <Array as="points">
              <mxPoint x="49" y="-151" />
            </Array>
          </mxGeometry>
        </mxCell>
        <mxCell id="KByajIvAHXBx090bnsgi-38" style="edgeStyle=none;curved=1;rounded=0;orthogonalLoop=1;jettySize=auto;html=1;entryX=0;entryY=0.5;entryDx=0;entryDy=0;fontSize=12;startSize=8;endSize=8;" parent="1" source="KByajIvAHXBx090bnsgi-4" target="KByajIvAHXBx090bnsgi-37" edge="1">
          <mxGeometry relative="1" as="geometry">
            <Array as="points">
              <mxPoint x="27" y="-103" />
            </Array>
          </mxGeometry>
        </mxCell>
        <mxCell id="KByajIvAHXBx090bnsgi-40" style="edgeStyle=none;curved=1;rounded=0;orthogonalLoop=1;jettySize=auto;html=1;entryX=0;entryY=0.5;entryDx=0;entryDy=0;fontSize=12;startSize=8;endSize=8;" parent="1" source="KByajIvAHXBx090bnsgi-4" target="KByajIvAHXBx090bnsgi-39" edge="1">
          <mxGeometry relative="1" as="geometry">
            <Array as="points">
              <mxPoint x="-13" y="-33" />
            </Array>
          </mxGeometry>
        </mxCell>
        <mxCell id="KByajIvAHXBx090bnsgi-4" value="Customer" style="shape=umlActor;verticalLabelPosition=bottom;verticalAlign=top;html=1;outlineConnect=0;" parent="1" vertex="1">
          <mxGeometry x="-33" y="-305.5" width="30" height="60" as="geometry" />
        </mxCell>
        <mxCell id="KByajIvAHXBx090bnsgi-8" value="Register" style="ellipse;whiteSpace=wrap;html=1;" parent="1" vertex="1">
          <mxGeometry x="158" y="-475" width="120" height="39" as="geometry" />
        </mxCell>
        <mxCell id="KByajIvAHXBx090bnsgi-9" value="Log In" style="ellipse;whiteSpace=wrap;html=1;" parent="1" vertex="1">
          <mxGeometry x="157.5" y="-433" width="120" height="39" as="geometry" />
        </mxCell>
        <mxCell id="KByajIvAHXBx090bnsgi-24" style="edgeStyle=none;curved=1;rounded=0;orthogonalLoop=1;jettySize=auto;html=1;entryX=0;entryY=0.5;entryDx=0;entryDy=0;fontSize=12;startSize=8;endSize=8;" parent="1" source="KByajIvAHXBx090bnsgi-10" target="KByajIvAHXBx090bnsgi-22" edge="1">
          <mxGeometry relative="1" as="geometry" />
        </mxCell>
        <mxCell id="KByajIvAHXBx090bnsgi-30" style="edgeStyle=none;curved=1;rounded=0;orthogonalLoop=1;jettySize=auto;html=1;entryX=0;entryY=0.5;entryDx=0;entryDy=0;fontSize=12;startSize=8;endSize=8;" parent="1" source="KByajIvAHXBx090bnsgi-10" target="KByajIvAHXBx090bnsgi-28" edge="1">
          <mxGeometry relative="1" as="geometry" />
        </mxCell>
        <mxCell id="KByajIvAHXBx090bnsgi-10" value="Call for a delivery" style="ellipse;whiteSpace=wrap;html=1;" parent="1" vertex="1">
          <mxGeometry x="156" y="-391" width="120" height="39" as="geometry" />
        </mxCell>
        <mxCell id="KByajIvAHXBx090bnsgi-18" value="" style="edgeStyle=none;curved=1;rounded=0;orthogonalLoop=1;jettySize=auto;html=1;fontSize=12;startSize=8;endSize=8;" parent="1" source="KByajIvAHXBx090bnsgi-15" target="KByajIvAHXBx090bnsgi-17" edge="1">
          <mxGeometry relative="1" as="geometry" />
        </mxCell>
        <mxCell id="KByajIvAHXBx090bnsgi-21" value="" style="edgeStyle=none;curved=1;rounded=0;orthogonalLoop=1;jettySize=auto;html=1;fontSize=12;startSize=8;endSize=8;" parent="1" source="KByajIvAHXBx090bnsgi-15" target="KByajIvAHXBx090bnsgi-17" edge="1">
          <mxGeometry relative="1" as="geometry" />
        </mxCell>
        <mxCell id="KByajIvAHXBx090bnsgi-23" style="edgeStyle=none;curved=1;rounded=0;orthogonalLoop=1;jettySize=auto;html=1;entryX=0;entryY=0.5;entryDx=0;entryDy=0;fontSize=12;startSize=8;endSize=8;" parent="1" source="KByajIvAHXBx090bnsgi-15" target="KByajIvAHXBx090bnsgi-22" edge="1">
          <mxGeometry relative="1" as="geometry" />
        </mxCell>
        <mxCell id="KByajIvAHXBx090bnsgi-29" style="edgeStyle=none;curved=1;rounded=0;orthogonalLoop=1;jettySize=auto;html=1;entryX=0;entryY=0.5;entryDx=0;entryDy=0;fontSize=12;startSize=8;endSize=8;" parent="1" source="KByajIvAHXBx090bnsgi-15" target="KByajIvAHXBx090bnsgi-28" edge="1">
          <mxGeometry relative="1" as="geometry" />
        </mxCell>
        <mxCell id="KByajIvAHXBx090bnsgi-15" value="Schedule For a delivery" style="ellipse;whiteSpace=wrap;html=1;" parent="1" vertex="1">
          <mxGeometry x="156" y="-348" width="120" height="39" as="geometry" />
        </mxCell>
        <mxCell id="KByajIvAHXBx090bnsgi-17" value="Select Date" style="ellipse;whiteSpace=wrap;html=1;" parent="1" vertex="1">
          <mxGeometry x="423" y="-324" width="120" height="39" as="geometry" />
        </mxCell>
        <mxCell id="KByajIvAHXBx090bnsgi-22" value="Select Vehicle Type" style="ellipse;whiteSpace=wrap;html=1;" parent="1" vertex="1">
          <mxGeometry x="420" y="-411" width="120" height="39" as="geometry" />
        </mxCell>
        <mxCell id="KByajIvAHXBx090bnsgi-26" value="Pay For Ride" style="ellipse;whiteSpace=wrap;html=1;" parent="1" vertex="1">
          <mxGeometry x="156" y="-305.5" width="120" height="39" as="geometry" />
        </mxCell>
        <mxCell id="KByajIvAHXBx090bnsgi-28" value="Pick up location" style="ellipse;whiteSpace=wrap;html=1;" parent="1" vertex="1">
          <mxGeometry x="420" y="-369" width="120" height="39" as="geometry" />
        </mxCell>
        <mxCell id="KByajIvAHXBx090bnsgi-107" value="" style="edgeStyle=none;curved=1;rounded=0;orthogonalLoop=1;jettySize=auto;html=1;fontSize=12;startSize=8;endSize=8;" parent="1" source="KByajIvAHXBx090bnsgi-31" target="KByajIvAHXBx090bnsgi-106" edge="1">
          <mxGeometry relative="1" as="geometry" />
        </mxCell>
        <mxCell id="KByajIvAHXBx090bnsgi-31" value="&lt;font style=&quot;font-size: 11px;&quot;&gt;View Driver&#39;s arrival Time&lt;/font&gt;" style="ellipse;whiteSpace=wrap;html=1;" parent="1" vertex="1">
          <mxGeometry x="158" y="-263" width="120" height="39" as="geometry" />
        </mxCell>
        <mxCell id="KByajIvAHXBx090bnsgi-32" value="Track location until destination" style="ellipse;whiteSpace=wrap;html=1;" parent="1" vertex="1">
          <mxGeometry x="158" y="-220" width="120" height="39" as="geometry" />
        </mxCell>
        <mxCell id="KByajIvAHXBx090bnsgi-35" value="View User&#39;s history" style="ellipse;whiteSpace=wrap;html=1;" parent="1" vertex="1">
          <mxGeometry x="158" y="-177" width="120" height="39" as="geometry" />
        </mxCell>
        <mxCell id="KByajIvAHXBx090bnsgi-37" value="Edit user&#39;s info" style="ellipse;whiteSpace=wrap;html=1;" parent="1" vertex="1">
          <mxGeometry x="157.5" y="-134" width="120" height="39" as="geometry" />
        </mxCell>
        <mxCell id="KByajIvAHXBx090bnsgi-39" value="Cancel ride" style="ellipse;whiteSpace=wrap;html=1;" parent="1" vertex="1">
          <mxGeometry x="158" y="-91" width="120" height="39" as="geometry" />
        </mxCell>
        <mxCell id="KByajIvAHXBx090bnsgi-41" value="Agrimove" style="text;html=1;align=center;verticalAlign=middle;whiteSpace=wrap;rounded=0;fontStyle=1" parent="1" vertex="1">
          <mxGeometry x="661" y="-634" width="60" height="30" as="geometry" />
        </mxCell>
        <mxCell id="KByajIvAHXBx090bnsgi-42" value="" style="rounded=1;whiteSpace=wrap;html=1;" parent="1" vertex="1">
          <mxGeometry x="62" y="-10" width="536" height="483" as="geometry" />
        </mxCell>
        <mxCell id="KByajIvAHXBx090bnsgi-43" value="Driver" style="text;html=1;align=center;verticalAlign=middle;whiteSpace=wrap;rounded=0;fontStyle=1" parent="1" vertex="1">
          <mxGeometry x="300" y="-8" width="60" height="30" as="geometry" />
        </mxCell>
        <mxCell id="KByajIvAHXBx090bnsgi-44" style="edgeStyle=none;curved=1;rounded=0;orthogonalLoop=1;jettySize=auto;html=1;entryX=0;entryY=0.5;entryDx=0;entryDy=0;fontSize=12;startSize=8;endSize=8;" parent="1" source="KByajIvAHXBx090bnsgi-54" target="KByajIvAHXBx090bnsgi-55" edge="1">
          <mxGeometry relative="1" as="geometry">
            <Array as="points">
              <mxPoint x="-25" y="47" />
            </Array>
          </mxGeometry>
        </mxCell>
        <mxCell id="KByajIvAHXBx090bnsgi-45" style="edgeStyle=none;curved=1;rounded=0;orthogonalLoop=1;jettySize=auto;html=1;entryX=0;entryY=0.5;entryDx=0;entryDy=0;fontSize=12;startSize=8;endSize=8;" parent="1" source="KByajIvAHXBx090bnsgi-54" target="KByajIvAHXBx090bnsgi-56" edge="1">
          <mxGeometry relative="1" as="geometry">
            <Array as="points">
              <mxPoint x="32" y="62" />
            </Array>
          </mxGeometry>
        </mxCell>
        <mxCell id="KByajIvAHXBx090bnsgi-46" style="edgeStyle=none;curved=1;rounded=0;orthogonalLoop=1;jettySize=auto;html=1;entryX=0;entryY=0.5;entryDx=0;entryDy=0;fontSize=12;startSize=8;endSize=8;" parent="1" source="KByajIvAHXBx090bnsgi-54" target="KByajIvAHXBx090bnsgi-59" edge="1">
          <mxGeometry relative="1" as="geometry">
            <Array as="points">
              <mxPoint x="60" y="109" />
            </Array>
          </mxGeometry>
        </mxCell>
        <mxCell id="KByajIvAHXBx090bnsgi-47" style="edgeStyle=none;curved=1;rounded=0;orthogonalLoop=1;jettySize=auto;html=1;entryX=0;entryY=0.5;entryDx=0;entryDy=0;fontSize=12;startSize=8;endSize=8;" parent="1" source="KByajIvAHXBx090bnsgi-54" target="KByajIvAHXBx090bnsgi-64" edge="1">
          <mxGeometry relative="1" as="geometry">
            <Array as="points">
              <mxPoint x="71" y="164" />
            </Array>
          </mxGeometry>
        </mxCell>
        <mxCell id="KByajIvAHXBx090bnsgi-48" style="edgeStyle=none;curved=1;rounded=0;orthogonalLoop=1;jettySize=auto;html=1;entryX=0;entryY=0.5;entryDx=0;entryDy=0;fontSize=12;startSize=8;endSize=8;" parent="1" source="KByajIvAHXBx090bnsgi-54" target="KByajIvAHXBx090bnsgi-67" edge="1">
          <mxGeometry relative="1" as="geometry">
            <Array as="points">
              <mxPoint x="77" y="211" />
            </Array>
          </mxGeometry>
        </mxCell>
        <mxCell id="KByajIvAHXBx090bnsgi-49" style="edgeStyle=none;curved=1;rounded=0;orthogonalLoop=1;jettySize=auto;html=1;entryX=0;entryY=0.5;entryDx=0;entryDy=0;fontSize=12;startSize=8;endSize=8;" parent="1" source="KByajIvAHXBx090bnsgi-54" target="KByajIvAHXBx090bnsgi-69" edge="1">
          <mxGeometry relative="1" as="geometry">
            <Array as="points">
              <mxPoint x="76" y="254" />
            </Array>
          </mxGeometry>
        </mxCell>
        <mxCell id="KByajIvAHXBx090bnsgi-50" style="edgeStyle=none;curved=1;rounded=0;orthogonalLoop=1;jettySize=auto;html=1;entryX=0;entryY=0.5;entryDx=0;entryDy=0;fontSize=12;startSize=8;endSize=8;" parent="1" source="KByajIvAHXBx090bnsgi-54" target="KByajIvAHXBx090bnsgi-70" edge="1">
          <mxGeometry relative="1" as="geometry">
            <Array as="points">
              <mxPoint x="62" y="307" />
            </Array>
          </mxGeometry>
        </mxCell>
        <mxCell id="KByajIvAHXBx090bnsgi-51" style="edgeStyle=none;curved=1;rounded=0;orthogonalLoop=1;jettySize=auto;html=1;entryX=0;entryY=0.5;entryDx=0;entryDy=0;fontSize=12;startSize=8;endSize=8;" parent="1" source="KByajIvAHXBx090bnsgi-54" target="KByajIvAHXBx090bnsgi-71" edge="1">
          <mxGeometry relative="1" as="geometry">
            <Array as="points">
              <mxPoint x="49" y="356" />
            </Array>
          </mxGeometry>
        </mxCell>
        <mxCell id="KByajIvAHXBx090bnsgi-52" style="edgeStyle=none;curved=1;rounded=0;orthogonalLoop=1;jettySize=auto;html=1;entryX=0;entryY=0.5;entryDx=0;entryDy=0;fontSize=12;startSize=8;endSize=8;" parent="1" source="KByajIvAHXBx090bnsgi-54" target="KByajIvAHXBx090bnsgi-72" edge="1">
          <mxGeometry relative="1" as="geometry">
            <Array as="points">
              <mxPoint x="27" y="404" />
            </Array>
          </mxGeometry>
        </mxCell>
        <mxCell id="KByajIvAHXBx090bnsgi-53" style="edgeStyle=none;curved=1;rounded=0;orthogonalLoop=1;jettySize=auto;html=1;entryX=0;entryY=0.5;entryDx=0;entryDy=0;fontSize=12;startSize=8;endSize=8;" parent="1" source="KByajIvAHXBx090bnsgi-54" target="KByajIvAHXBx090bnsgi-73" edge="1">
          <mxGeometry relative="1" as="geometry">
            <Array as="points">
              <mxPoint x="-13" y="474" />
            </Array>
          </mxGeometry>
        </mxCell>
        <mxCell id="KByajIvAHXBx090bnsgi-54" value="Driver" style="shape=umlActor;verticalLabelPosition=bottom;verticalAlign=top;html=1;outlineConnect=0;" parent="1" vertex="1">
          <mxGeometry x="-33" y="201.5" width="30" height="60" as="geometry" />
        </mxCell>
        <mxCell id="KByajIvAHXBx090bnsgi-115" style="edgeStyle=none;curved=1;rounded=0;orthogonalLoop=1;jettySize=auto;html=1;entryX=0;entryY=0.5;entryDx=0;entryDy=0;fontSize=12;startSize=8;endSize=8;" parent="1" source="KByajIvAHXBx090bnsgi-55" target="KByajIvAHXBx090bnsgi-114" edge="1">
          <mxGeometry relative="1" as="geometry" />
        </mxCell>
        <mxCell id="KByajIvAHXBx090bnsgi-55" value="Register" style="ellipse;whiteSpace=wrap;html=1;" parent="1" vertex="1">
          <mxGeometry x="158" y="32" width="120" height="39" as="geometry" />
        </mxCell>
        <mxCell id="KByajIvAHXBx090bnsgi-56" value="Log In" style="ellipse;whiteSpace=wrap;html=1;" parent="1" vertex="1">
          <mxGeometry x="157.5" y="74" width="120" height="39" as="geometry" />
        </mxCell>
        <mxCell id="KByajIvAHXBx090bnsgi-59" value="See schedule delivery/ride" style="ellipse;whiteSpace=wrap;html=1;" parent="1" vertex="1">
          <mxGeometry x="156" y="116" width="120" height="39" as="geometry" />
        </mxCell>
        <mxCell id="KByajIvAHXBx090bnsgi-64" value="Accept ride" style="ellipse;whiteSpace=wrap;html=1;" parent="1" vertex="1">
          <mxGeometry x="156" y="159" width="120" height="39" as="geometry" />
        </mxCell>
        <mxCell id="KByajIvAHXBx090bnsgi-67" value="Bind bank account" style="ellipse;whiteSpace=wrap;html=1;" parent="1" vertex="1">
          <mxGeometry x="156" y="201.5" width="120" height="39" as="geometry" />
        </mxCell>
        <mxCell id="KByajIvAHXBx090bnsgi-69" value="&lt;font&gt;Chat with customer&lt;/font&gt;" style="ellipse;whiteSpace=wrap;html=1;" parent="1" vertex="1">
          <mxGeometry x="158" y="244" width="120" height="39" as="geometry" />
        </mxCell>
        <mxCell id="KByajIvAHXBx090bnsgi-70" value="Check pick up location" style="ellipse;whiteSpace=wrap;html=1;" parent="1" vertex="1">
          <mxGeometry x="158" y="287" width="120" height="39" as="geometry" />
        </mxCell>
        <mxCell id="KByajIvAHXBx090bnsgi-110" value="" style="edgeStyle=none;curved=1;rounded=0;orthogonalLoop=1;jettySize=auto;html=1;fontSize=12;startSize=8;endSize=8;" parent="1" source="KByajIvAHXBx090bnsgi-71" target="KByajIvAHXBx090bnsgi-109" edge="1">
          <mxGeometry relative="1" as="geometry" />
        </mxCell>
        <mxCell id="KByajIvAHXBx090bnsgi-71" value="View User&#39;s history" style="ellipse;whiteSpace=wrap;html=1;" parent="1" vertex="1">
          <mxGeometry x="158" y="330" width="120" height="39" as="geometry" />
        </mxCell>
        <mxCell id="KByajIvAHXBx090bnsgi-72" value="Edit user&#39;s info" style="ellipse;whiteSpace=wrap;html=1;" parent="1" vertex="1">
          <mxGeometry x="157.5" y="373" width="120" height="39" as="geometry" />
        </mxCell>
        <mxCell id="KByajIvAHXBx090bnsgi-73" value="Cancel ride" style="ellipse;whiteSpace=wrap;html=1;" parent="1" vertex="1">
          <mxGeometry x="158" y="416" width="120" height="39" as="geometry" />
        </mxCell>
        <mxCell id="KByajIvAHXBx090bnsgi-74" value="" style="rounded=1;whiteSpace=wrap;html=1;" parent="1" vertex="1">
          <mxGeometry x="786" y="-292" width="536" height="483" as="geometry" />
        </mxCell>
        <mxCell id="KByajIvAHXBx090bnsgi-75" value="Admin" style="text;html=1;align=center;verticalAlign=middle;whiteSpace=wrap;rounded=0;fontStyle=1" parent="1" vertex="1">
          <mxGeometry x="1024" y="-290" width="60" height="30" as="geometry" />
        </mxCell>
        <mxCell id="KByajIvAHXBx090bnsgi-117" style="edgeStyle=none;curved=1;rounded=0;orthogonalLoop=1;jettySize=auto;html=1;entryX=0;entryY=0.5;entryDx=0;entryDy=0;fontSize=12;startSize=8;endSize=8;" parent="1" source="KByajIvAHXBx090bnsgi-86" target="KByajIvAHXBx090bnsgi-116" edge="1">
          <mxGeometry relative="1" as="geometry">
            <Array as="points">
              <mxPoint x="794" y="-217" />
            </Array>
          </mxGeometry>
        </mxCell>
        <mxCell id="KByajIvAHXBx090bnsgi-122" style="edgeStyle=none;curved=1;rounded=0;orthogonalLoop=1;jettySize=auto;html=1;entryX=0;entryY=0.5;entryDx=0;entryDy=0;fontSize=12;startSize=8;endSize=8;" parent="1" source="KByajIvAHXBx090bnsgi-86" target="KByajIvAHXBx090bnsgi-118" edge="1">
          <mxGeometry relative="1" as="geometry">
            <Array as="points">
              <mxPoint x="798" y="-157" />
            </Array>
          </mxGeometry>
        </mxCell>
        <mxCell id="KByajIvAHXBx090bnsgi-123" style="edgeStyle=none;curved=1;rounded=0;orthogonalLoop=1;jettySize=auto;html=1;entryX=0;entryY=0.5;entryDx=0;entryDy=0;fontSize=12;startSize=8;endSize=8;" parent="1" source="KByajIvAHXBx090bnsgi-86" target="KByajIvAHXBx090bnsgi-119" edge="1">
          <mxGeometry relative="1" as="geometry">
            <Array as="points">
              <mxPoint x="818" y="-95" />
            </Array>
          </mxGeometry>
        </mxCell>
        <mxCell id="KByajIvAHXBx090bnsgi-124" style="edgeStyle=none;curved=1;rounded=0;orthogonalLoop=1;jettySize=auto;html=1;entryX=0;entryY=0.5;entryDx=0;entryDy=0;fontSize=12;startSize=8;endSize=8;" parent="1" source="KByajIvAHXBx090bnsgi-86" target="KByajIvAHXBx090bnsgi-120" edge="1">
          <mxGeometry relative="1" as="geometry">
            <Array as="points" />
          </mxGeometry>
        </mxCell>
        <mxCell id="KByajIvAHXBx090bnsgi-125" style="edgeStyle=none;curved=1;rounded=0;orthogonalLoop=1;jettySize=auto;html=1;fontSize=12;startSize=8;endSize=8;" parent="1" source="KByajIvAHXBx090bnsgi-86" target="KByajIvAHXBx090bnsgi-121" edge="1">
          <mxGeometry relative="1" as="geometry">
            <Array as="points">
              <mxPoint x="832" y="20" />
            </Array>
          </mxGeometry>
        </mxCell>
        <mxCell id="KByajIvAHXBx090bnsgi-127" style="edgeStyle=none;curved=1;rounded=0;orthogonalLoop=1;jettySize=auto;html=1;entryX=0;entryY=0.5;entryDx=0;entryDy=0;fontSize=12;startSize=8;endSize=8;" parent="1" source="KByajIvAHXBx090bnsgi-86" target="KByajIvAHXBx090bnsgi-126" edge="1">
          <mxGeometry relative="1" as="geometry">
            <Array as="points">
              <mxPoint x="794" y="113" />
            </Array>
          </mxGeometry>
        </mxCell>
        <mxCell id="KByajIvAHXBx090bnsgi-86" value="Admin" style="shape=umlActor;verticalLabelPosition=bottom;verticalAlign=top;html=1;outlineConnect=0;" parent="1" vertex="1">
          <mxGeometry x="691" y="-80.5" width="30" height="60" as="geometry" />
        </mxCell>
        <mxCell id="KByajIvAHXBx090bnsgi-106" value="&lt;font&gt;Chat with driver&lt;/font&gt;" style="ellipse;whiteSpace=wrap;html=1;" parent="1" vertex="1">
          <mxGeometry x="420" y="-263" width="120" height="39" as="geometry" />
        </mxCell>
        <mxCell id="KByajIvAHXBx090bnsgi-108" style="edgeStyle=none;curved=1;rounded=0;orthogonalLoop=1;jettySize=auto;html=1;entryX=1;entryY=0.5;entryDx=0;entryDy=0;fontSize=12;startSize=8;endSize=8;" parent="1" source="KByajIvAHXBx090bnsgi-71" target="KByajIvAHXBx090bnsgi-71" edge="1">
          <mxGeometry relative="1" as="geometry" />
        </mxCell>
        <mxCell id="KByajIvAHXBx090bnsgi-109" value="View statistics" style="ellipse;whiteSpace=wrap;html=1;" parent="1" vertex="1">
          <mxGeometry x="398" y="330" width="120" height="39" as="geometry" />
        </mxCell>
        <mxCell id="KByajIvAHXBx090bnsgi-114" value="&lt;font style=&quot;font-size: 11px;&quot;&gt;Input vehicles info for registration&lt;/font&gt;" style="ellipse;whiteSpace=wrap;html=1;" parent="1" vertex="1">
          <mxGeometry x="393" y="32" width="120" height="39" as="geometry" />
        </mxCell>
        <mxCell id="KByajIvAHXBx090bnsgi-116" value="Log In" style="ellipse;whiteSpace=wrap;html=1;" parent="1" vertex="1">
          <mxGeometry x="994" y="-211" width="120" height="39" as="geometry" />
        </mxCell>
        <mxCell id="KByajIvAHXBx090bnsgi-118" value="Block users" style="ellipse;whiteSpace=wrap;html=1;" parent="1" vertex="1">
          <mxGeometry x="994" y="-166" width="120" height="39" as="geometry" />
        </mxCell>
        <mxCell id="KByajIvAHXBx090bnsgi-119" value="Manage platform settings" style="ellipse;whiteSpace=wrap;html=1;" parent="1" vertex="1">
          <mxGeometry x="994" y="-122" width="120" height="39" as="geometry" />
        </mxCell>
        <mxCell id="KByajIvAHXBx090bnsgi-120" value="Manage reports" style="ellipse;whiteSpace=wrap;html=1;" parent="1" vertex="1">
          <mxGeometry x="994" y="-78" width="120" height="39" as="geometry" />
        </mxCell>
        <mxCell id="KByajIvAHXBx090bnsgi-121" value="Unblock Users" style="ellipse;whiteSpace=wrap;html=1;" parent="1" vertex="1">
          <mxGeometry x="994" y="-36" width="120" height="39" as="geometry" />
        </mxCell>
        <mxCell id="KByajIvAHXBx090bnsgi-126" value="Warn/PM users" style="ellipse;whiteSpace=wrap;html=1;" parent="1" vertex="1">
          <mxGeometry x="994" y="6" width="120" height="39" as="geometry" />
        </mxCell>
      </root>
    </mxGraphModel>
  </diagram>
  <diagram id="FDVnXJk8xGnPgWPxNwJx" name="Page-2">
    <mxGraphModel dx="786" dy="934" grid="0" gridSize="10" guides="1" tooltips="1" connect="1" arrows="1" fold="1" page="0" pageScale="1" pageWidth="850" pageHeight="1100" math="0" shadow="0">
      <root>
        <mxCell id="0" />
        <mxCell id="1" parent="0" />
        <mxCell id="8px0WA5qL7AQeNBhzk2j-4" style="edgeStyle=none;curved=1;rounded=0;orthogonalLoop=1;jettySize=auto;html=1;entryX=0;entryY=0.5;entryDx=0;entryDy=0;fontSize=12;startSize=8;endSize=8;" edge="1" parent="1" source="8px0WA5qL7AQeNBhzk2j-1" target="8px0WA5qL7AQeNBhzk2j-2">
          <mxGeometry relative="1" as="geometry" />
        </mxCell>
        <mxCell id="8px0WA5qL7AQeNBhzk2j-1" value="A" style="ellipse;whiteSpace=wrap;html=1;aspect=fixed;" vertex="1" parent="1">
          <mxGeometry x="15" y="159" width="56" height="56" as="geometry" />
        </mxCell>
        <mxCell id="8px0WA5qL7AQeNBhzk2j-5" style="edgeStyle=none;curved=1;rounded=0;orthogonalLoop=1;jettySize=auto;html=1;entryX=0;entryY=0.5;entryDx=0;entryDy=0;fontSize=12;startSize=8;endSize=8;" edge="1" parent="1" source="8px0WA5qL7AQeNBhzk2j-2" target="8px0WA5qL7AQeNBhzk2j-3">
          <mxGeometry relative="1" as="geometry" />
        </mxCell>
        <mxCell id="8px0WA5qL7AQeNBhzk2j-2" value="B" style="ellipse;whiteSpace=wrap;html=1;aspect=fixed;" vertex="1" parent="1">
          <mxGeometry x="140" y="159" width="56" height="56" as="geometry" />
        </mxCell>
        <mxCell id="8px0WA5qL7AQeNBhzk2j-3" value="C" style="ellipse;whiteSpace=wrap;html=1;aspect=fixed;" vertex="1" parent="1">
          <mxGeometry x="265" y="159" width="56" height="56" as="geometry" />
        </mxCell>
        <mxCell id="8px0WA5qL7AQeNBhzk2j-6" value="1/a" style="text;html=1;align=center;verticalAlign=middle;resizable=0;points=[];autosize=1;strokeColor=none;fillColor=none;fontSize=16;" vertex="1" parent="1">
          <mxGeometry x="203.5" y="155.5" width="40" height="31" as="geometry" />
        </mxCell>
        <mxCell id="8px0WA5qL7AQeNBhzk2j-7" value="0/b" style="text;html=1;align=center;verticalAlign=middle;resizable=0;points=[];autosize=1;strokeColor=none;fillColor=none;fontSize=16;" vertex="1" parent="1">
          <mxGeometry x="80" y="155.5" width="40" height="31" as="geometry" />
        </mxCell>
        <mxCell id="8px0WA5qL7AQeNBhzk2j-8" value="" style="curved=1;endArrow=classic;html=1;rounded=0;fontSize=12;startSize=8;endSize=8;exitX=0;exitY=0;exitDx=0;exitDy=0;entryX=0.738;entryY=0.054;entryDx=0;entryDy=0;entryPerimeter=0;" edge="1" parent="1" source="8px0WA5qL7AQeNBhzk2j-2" target="8px0WA5qL7AQeNBhzk2j-2">
          <mxGeometry width="50" height="50" relative="1" as="geometry">
            <mxPoint x="109.99199999999996" y="95.66399999999999" as="sourcePoint" />
            <mxPoint x="130.65599999999995" y="100.31200000000001" as="targetPoint" />
            <Array as="points">
              <mxPoint x="142" y="96" />
              <mxPoint x="175" y="104" />
            </Array>
          </mxGeometry>
        </mxCell>
        <mxCell id="8px0WA5qL7AQeNBhzk2j-11" value="0/b" style="text;html=1;align=center;verticalAlign=middle;resizable=0;points=[];autosize=1;strokeColor=none;fillColor=none;fontSize=16;" vertex="1" parent="1">
          <mxGeometry x="136" y="69" width="40" height="31" as="geometry" />
        </mxCell>
        <mxCell id="8px0WA5qL7AQeNBhzk2j-12" value="" style="curved=1;endArrow=classic;html=1;rounded=0;fontSize=12;startSize=8;endSize=8;entryX=0.69;entryY=0.982;entryDx=0;entryDy=0;entryPerimeter=0;exitX=0.387;exitY=1.006;exitDx=0;exitDy=0;exitPerimeter=0;" edge="1" parent="1" source="8px0WA5qL7AQeNBhzk2j-3" target="8px0WA5qL7AQeNBhzk2j-2">
          <mxGeometry width="50" height="50" relative="1" as="geometry">
            <mxPoint x="175" y="225" as="sourcePoint" />
            <mxPoint x="225" y="175" as="targetPoint" />
            <Array as="points">
              <mxPoint x="239" y="239" />
              <mxPoint x="205" y="239" />
            </Array>
          </mxGeometry>
        </mxCell>
        <mxCell id="8px0WA5qL7AQeNBhzk2j-13" value="0/b" style="text;html=1;align=center;verticalAlign=middle;resizable=0;points=[];autosize=1;strokeColor=none;fillColor=none;fontSize=16;" vertex="1" parent="1">
          <mxGeometry x="203.5" y="232" width="40" height="31" as="geometry" />
        </mxCell>
        <mxCell id="8px0WA5qL7AQeNBhzk2j-14" value="" style="curved=1;endArrow=classic;html=1;rounded=0;fontSize=12;startSize=8;endSize=8;entryX=0.387;entryY=0.018;entryDx=0;entryDy=0;entryPerimeter=0;exitX=0.5;exitY=0;exitDx=0;exitDy=0;" edge="1" parent="1" source="8px0WA5qL7AQeNBhzk2j-3" target="8px0WA5qL7AQeNBhzk2j-1">
          <mxGeometry width="50" height="50" relative="1" as="geometry">
            <mxPoint x="175" y="225" as="sourcePoint" />
            <mxPoint x="225" y="175" as="targetPoint" />
            <Array as="points">
              <mxPoint x="252" y="18" />
              <mxPoint x="47" y="23" />
            </Array>
          </mxGeometry>
        </mxCell>
        <mxCell id="8px0WA5qL7AQeNBhzk2j-15" value="1/b" style="text;html=1;align=center;verticalAlign=middle;resizable=0;points=[];autosize=1;strokeColor=none;fillColor=none;fontSize=16;" vertex="1" parent="1">
          <mxGeometry x="128" y="-8" width="40" height="31" as="geometry" />
        </mxCell>
        <mxCell id="8px0WA5qL7AQeNBhzk2j-17" value="" style="curved=1;endArrow=classic;html=1;rounded=0;fontSize=12;startSize=8;endSize=8;entryX=1;entryY=1;entryDx=0;entryDy=0;exitX=0.304;exitY=0.964;exitDx=0;exitDy=0;exitPerimeter=0;" edge="1" parent="1" source="8px0WA5qL7AQeNBhzk2j-1" target="8px0WA5qL7AQeNBhzk2j-1">
          <mxGeometry width="50" height="50" relative="1" as="geometry">
            <mxPoint x="175" y="217" as="sourcePoint" />
            <mxPoint x="225" y="167" as="targetPoint" />
            <Array as="points">
              <mxPoint x="21" y="294" />
              <mxPoint x="94" y="257" />
            </Array>
          </mxGeometry>
        </mxCell>
        <mxCell id="8px0WA5qL7AQeNBhzk2j-18" value="1/b" style="text;html=1;align=center;verticalAlign=middle;resizable=0;points=[];autosize=1;strokeColor=none;fillColor=none;fontSize=16;" vertex="1" parent="1">
          <mxGeometry x="36" y="273" width="40" height="31" as="geometry" />
        </mxCell>
      </root>
    </mxGraphModel>
  </diagram>
</mxfile>
